# xmcd CD database file
#
# Track frame offsets:
#	150
#	15849
#	33051
#	48641
#	63708
#	77822
#	94572
#	112991
#	130731
#	147415
#	159362
#	180477
#	195244
#	209861
#	226945
#	239870
#	262284
#	283101
#
# Disc length: 4062 seconds
#
# Revision: 0
# Processed by: cddbd v1.4PL0 Copyright (c) Steve Scherf et al.
# Submitted via: CDex 1.51
#
DISCID=fe0fdc12
DTITLE=Gipsy Kings - Gipsy Kings (Greatest Hits)
DYEAR=1994
DGENRE=Blues
TTITLE0=Djobi Djoba
TTITLE1=BAILA ME
TTITLE2=Bamboleo
TTITLE3=Pida me la
TTITLE4=Bern Bern Maria
TTITLE5=Volare
TTITLE6=Moorea
TTITLE7=Mi Manera (Comme d'Habitude)
TTITLE8=Amor
TTITLE9=Galaxia
TTITLE10=Escucha me
TTITLE11=Tu Quieres Volver
TTITLE12=Sory
TTITLE13=Quiero
TTITLE14=Allegria
TTITLE15=Vamos A Bailar
TTITLE16=La Dona
TTITLE17=Medley: Bamboleo/Volaré/Djobi Djoba/Pida Me La/Baila Me
EXTD=YEAR: 1994
EXTT0=
EXTT1=
EXTT2=
EXTT3=
EXTT4=
EXTT5=
EXTT6=
EXTT7=
EXTT8=
EXTT9=
EXTT10=
EXTT11=
EXTT12=
EXTT13=
EXTT14=
EXTT15=
EXTT16=
EXTT17=
PLAYORDER=
